#!OML:ASF I:\golf\golf\golf 2\Subject 1\2002-09-07\Subject1.ASF
:FULLY-SPECIFIED
:DEGREES
408
root -11.3087 18.0638 6.24734 -132.442 83.6802 -150.189
lowerback 3.65503 1.77388 -0.872505
upperback 4.29105 2.44742 4.42766
thorax 2.14502 1.20395 5.0265
lowerneck -11.5754 -2.18625 1.9389
upperneck 41.7283 0.0944981 -3.1154
head 17.1735 0.679823 -1.5204
rclavicle 2.18663e-014 3.81667e-014
rhumerus -8.23883 10.5296 -100.228
rradius 32.1741
rwrist -43.0556
rhand -27.3876 -15.8605
rfingers 7.12502
rthumb -0.794409 -45.8388
lclavicle 2.18663e-014 3.81667e-014
lhumerus -11.6068 -46.3268 108.512
lradius 36.25
lwrist 51.4012
lhand -7.55694 59.6533
lfingers 7.12502
lthumb -161.665 268.809
rfemur -26.9053 -1.96269 13.8748
rtibia 21.688
rfoot -5.79944 -10.903
rtoes -1.54219
lfemur -29.976 2.47281 -10.6735
ltibia 23.3661
lfoot -8.69941 -5.09655
ltoes -16.089
409
root -11.3061 18.0626 6.24095 -133.378 83.5121 -151.136
lowerback 3.66221 1.79562 -0.815637
upperback 4.2582 2.47947 4.48547
thorax 2.10386 1.22244 5.05275
lowerneck -11.5202 -2.22309 1.88737
upperneck 41.7109 0.06377 -3.11697
head 17.1481 0.662641 -1.51499
rclavicle -1.98785e-014 -1.90833e-014
rhumerus -8.36503 10.7346 -100.17
rradius 32.3121
rwrist -43.2953
rhand -27.4941 -15.9861
rfingers 7.12502
rthumb -0.897327 -45.964
lclavicle -1.98785e-014 -1.90833e-014
lhumerus -11.638 -46.2695 108.587
lradius 36.1932
lwrist 51.1882
lhand -7.40408 59.434
lfingers 7.12502
lthumb -161.518 268.576
rfemur -26.8397 -2.00155 13.8578
rtibia 21.6607
rfoot -5.8297 -11.0557
rtoes -1.15701
lfemur -29.979 2.51017 -10.7303
ltibia 23.2683
lfoot -8.73943 -5.29692
ltoes -16.831
410
root -11.3016 18.0657 6.23777 -133.518 83.4233 -151.321
lowerback 3.60256 1.8597 -0.79597
upperback 4.21804 2.56527 4.52937
thorax 2.08657 1.2662 5.08649
lowerneck -11.4758 -2.26696 1.91171
upperneck 41.7033 0.0194741 -3.16546
head 17.1297 0.64592 -1.54726
rclavicle -4.37326e-014 -5.40694e-014
rhumerus -8.47509 10.7981 -100.167
rradius 32.4125
rwrist -43.5395
rhand -27.7573 -16.0969
rfingers 7.12502
rthumb -1.15152 -46.0735
lclavicle -4.37326e-014 -5.40694e-014
lhumerus -11.7441 -46.365 108.591
lradius 36.2606
lwrist 51.2278
lhand -7.103 59.3079
lfingers 7.12502
lthumb -161.228 268.422
rfemur -26.8257 -1.9022 13.8541
rtibia 21.6411
rfoot -5.85792 -11.2489
rtoes -1.28974
lfemur -29.9681 2.55007 -10.7235
ltibia 23.1482
lfoot -8.68847 -5.45134
ltoes -16.6463
411
root -11.2957 18.0698 6.23791 -133.607 83.3797 -151.423
lowerback 3.54504 1.93774 -0.879436
upperback 4.20414 2.66767 4.58271
thorax 2.08906 1.31512 5.18918
lowerneck -11.4694 -2.30094 1.99525
upperneck 41.7415 0.00356184 -3.27397
head 17.1479 0.643655 -1.61384
rclavicle 5.56597e-014 9.54166e-014
rhumerus -8.33563 10.3069 -100.24
rradius 32.0873
rwrist -43.1025
rhand -27.7859 -15.9591
rfingers 7.12502
rthumb -1.17909 -45.9356
lclavicle 5.56597e-014 9.54166e-014
lhumerus -11.8334 -46.4705 108.58
lradius 36.3457
lwrist 51.326
lhand -7.03927 59.3061
lfingers 7.12502
lthumb -161.167 268.414
rfemur -26.7712 -1.69857 13.8085
rtibia 21.6097
rfoot -5.87218 -11.469
rtoes -1.30332
lfemur -29.9047 2.58491 -10.7213
ltibia 23.0188
lfoot -8.64932 -5.55663
ltoes -16.3495
412
root -11.292 18.0722 6.23053 -135.875 83.2125 -153.632
lowerback 3.58564 1.9558 -0.861104
upperback 4.21619 2.69326 4.56593
thorax 2.07784 1.32899 5.15922
lowerneck -11.486 -2.36455 2.09532
upperneck 41.7715 -0.0689964 -3.37211
head 17.1642 0.621997 -1.68844
rclavicle -1.59028e-015 -1.11319e-014
rhumerus -8.73691 11.3754 -100.116
rradius 32.8037
rwrist -44.1856
rhand -28.0661 -16.1199
rfingers 7.12502
rthumb -1.44973 -46.0947
lclavicle -1.59028e-015 -1.11319e-014
lhumerus -11.8557 -46.6964 108.605
lradius 36.3707
lwrist 51.4145
lhand -7.28051 59.356
lfingers 7.12502
lthumb -161.399 268.487
rfemur -26.5831 -1.79742 13.6342
rtibia 21.5668
rfoot -5.94558 -11.6237
rtoes -0.722177
lfemur -29.8287 2.41816 -10.8806
ltibia 22.8903
lfoot -8.64107 -5.67885
ltoes -16.5469
413
root -11.2914 18.0728 6.21741 -138.825 82.8515 -156.534
lowerback 3.63176 1.90595 -0.587083
upperback 4.2286 2.63302 4.47302
thorax 2.08567 1.3068 4.90636
lowerneck -11.5275 -2.42158 2.22292
upperneck 41.7853 -0.180998 -3.38582
head 17.1757 0.597845 -1.73666
rclavicle 1.11319e-014 1.66979e-014
rhumerus -8.61329 10.9724 -100.219
rradius 32.6495
rwrist -43.8795
rhand -27.8895 -15.9302
rfingers 7.12502
rthumb -1.27915 -45.9061
lclavicle 1.11319e-014 1.66979e-014
lhumerus -11.7925 -46.9639 108.544
lradius 36.3189
lwrist 51.4191
lhand -7.42567 59.4205
lfingers 7.12502
lthumb -161.539 268.564
rfemur -26.3872 -2.1435 13.5126
rtibia 21.5375
rfoot -6.05232 -11.7933
rtoes -0.243382
lfemur -29.8244 2.12246 -11.0386
ltibia 22.7583
lfoot -8.62966 -5.83435
ltoes -17.1008
414
root -11.29 18.0723 6.21018 -140.447 82.5787 -158.191
lowerback 3.59864 1.87282 -0.462408
upperback 4.19582 2.59072 4.43801
thorax 2.08044 1.28922 4.80034
lowerneck -11.5429 -2.44149 2.30321
upperneck 41.8519 -0.223807 -3.36938
head 17.2147 0.601031 -1.75139
rclavicle -1.35174e-014 6.36111e-015
rhumerus -8.56259 10.7994 -100.326
rradius 32.5668
rwrist -43.7405
rhand -27.7509 -15.9683
rfingers 7.12502
rthumb -1.14534 -45.945
lclavicle -1.35174e-014 6.36111e-015
lhumerus -11.7951 -47.0365 108.502
lradius 36.267
lwrist 51.2679
lhand -7.29718 59.2911
lfingers 7.12502
lthumb -161.415 268.423
rfemur -26.3108 -2.3326 13.4572
rtibia 21.4906
rfoot -6.04131 -11.9935
rtoes -0.407435
lfemur -29.8843 2.03996 -11.1502
ltibia 22.6397
lfoot -8.62312 -6.07534
ltoes -17.2393
415
root -11.2851 18.0727 6.21212 -140.383 82.5639 -158.193
lowerback 3.48847 1.95168 -0.618841
upperback 4.16192 2.69155 4.51749
thorax 2.08826 1.33502 4.9732
lowerneck -11.5215 -2.469 2.25809
upperneck 41.9229 -0.231009 -3.3632
head 17.25 0.599227 -1.7412
rclavicle 4.49253e-014 6.36111e-014
rhumerus -8.7783 11.2269 -100.25
rradius 32.8206
rwrist -44.113
rhand -27.4739 -16.0481
rfingers 7.12502
rthumb -0.877752 -46.026
lclavicle 4.49253e-014 6.36111e-014
lhumerus -11.8659 -47.0734 108.542
lradius 36.3112
lwrist 51.2457
lhand -7.17358 59.2507
lfingers 7.12502
lthumb -161.296 268.371
rfemur -26.3142 -2.21101 13.4295
rtibia 21.4214
rfoot -5.95335 -12.1316
rtoes -0.899149
lfemur -29.9057 2.32172 -11.2333
ltibia 22.5356
lfoot -8.60701 -6.40414
ltoes -16.9734
416
root -11.2772 18.0775 6.22233 -138.292 82.779 -156.153
lowerback 3.32133 2.16023 -0.838765
upperback 4.17458 2.96378 4.62756
thorax 2.15494 1.46384 5.21477
lowerneck -11.5227 -2.46885 2.22852
upperneck 41.9324 -0.211949 -3.36096
head 17.2571 0.606425 -1.73066
rclavicle -1.82882e-014 5.56597e-015
rhumerus -8.8684 11.204 -100.192
rradius 32.8724
rwrist -44.065
rhand -27.361 -15.8476
rfingers 7.12502
rthumb -0.768708 -45.826
lclavicle -1.82882e-014 5.56597e-015
lhumerus -11.8846 -47.2079 108.529
lradius 36.4036
lwrist 51.3714
lhand -7.09551 59.3811
lfingers 7.12502
lthumb -161.221 268.495
rfemur -26.3658 -1.84464 13.5156
rtibia 21.3329
rfoot -5.89792 -12.1512
rtoes -0.992916
lfemur -29.815 2.76018 -11.1681
ltibia 22.4258
lfoot -8.61305 -6.50779
ltoes -17.0472
417
root -11.2746 18.0806 6.21268 -140.023 82.5272 -157.856
lowerback 3.37295 2.12735 -0.728371
upperback 4.15659 2.92373 4.62125
thorax 2.11655 1.44785 5.14345
lowerneck -11.5037 -2.4372 2.30399
upperneck 41.888 -0.174772 -3.38514
head 17.2275 0.631289 -1.74732
rclavicle 2.78299e-014 7.31528e-014
rhumerus -8.67692 10.4715 -100.276
rradius 32.4252
rwrist -43.311
rhand -27.406 -15.7678
rfingers 7.12502
rthumb -0.812211 -45.746
lclavicle 2.78299e-014 7.31528e-014
lhumerus -11.9047 -47.2396 108.51
lradius 36.4032
lwrist 51.3411
lhand -6.99767 59.3774
lfingers 7.12502
lthumb -161.127 268.482
rfemur -26.1928 -2.09057 13.4424
rtibia 21.2479
rfoot -5.93326 -12.2342
rtoes -0.801249
lfemur -29.7736 2.47748 -11.244
ltibia 22.2856
lfoot -8.52641 -6.57999
ltoes -17.1574
